<svg width="10" height="10" viewBox="0 0 10 10" fill="none" xmlns="http://www.w3.org/2000/svg">
<g clip-path="url(#clip0_943_1814)">
<path d="M9.88169 0.118804C9.72394 -0.0389502 9.46818 -0.0389502 9.31042 0.118804L0.118315 9.3109C-0.0394385 9.46865 -0.0394385 9.72441 0.118315 9.88217C0.197183 9.96107 0.300581 10.0005 0.40396 10.0005C0.507339 10.0005 0.610718 9.96105 0.689604 9.88215L9.88169 0.690054C10.0394 0.53232 10.0394 0.276558 9.88169 0.118804Z" fill="white"/>
<path d="M9.88168 9.3104L0.689565 0.118315C0.531831 -0.0394385 0.27605 -0.0394385 0.118315 0.118315C-0.0394385 0.27605 -0.0394385 0.531811 0.118315 0.689565L9.31043 9.88167C9.38929 9.96056 9.49269 9.99999 9.59607 9.99999C9.69945 9.99999 9.80285 9.96056 9.8817 9.88169C10.0394 9.72392 10.0394 9.46816 9.88168 9.3104Z" fill="white"/>
</g>
<defs>
<clipPath id="clip0_943_1814">
<rect width="10" height="10" fill="white"/>
</clipPath>
</defs>
</svg>
